<svg width="611" height="211" viewBox="335 255 611 211" fill="none" xmlns="http://www.w3.org/2000/svg" role="img" aria-label="Sipay">
<path d="M378.993 291.168C375.432 292.19 372.558 295.048 371.542 298.608C371.245 299.647 371.091 300.724 371.135 301.779C371.366 307.555 376.059 312.181 381.845 312.181H409.552C429.241 312.181 446.028 325.765 450.66 344.262C451.82 347.729 452.105 351.197 452.105 354.955C452.105 366.517 447.473 377.21 439.659 385.013C431.845 392.816 421.13 397.438 409.552 397.438H342.649V381.54C342.649 372.578 349.886 365.352 358.573 365.352H409.266C415.058 365.352 419.976 361.016 420.267 354.95C420.267 352.059 419.108 349.169 417.08 347.433C415.052 345.41 412.447 344.256 409.552 344.256H381.554C369.976 344.256 359.26 339.344 351.446 331.827C346.237 326.337 342.182 319.688 340.445 312.176C339.577 308.709 339 305.241 339 301.774C339 278.073 358.689 259 382.136 259H446.632V274.897C446.632 283.854 439.395 290.795 430.708 290.795H381.554C380.669 290.795 379.817 290.926 378.993 291.163V291.168Z" fill="white"/>
<path d="M497.56 280.101C497.56 291.948 488.004 301.488 476.426 301.488C464.848 301.488 455.001 291.948 455.001 280.101C455.001 268.254 464.557 259 476.426 259C488.296 259 497.56 268.539 497.56 280.101ZM476.426 311.939H492.351V381.771C492.351 390.442 485.114 397.669 476.426 397.669H460.216V327.837C460.216 319.166 467.453 311.939 476.426 311.939Z" fill="white"/>
<path d="M575.415 397.443C561.518 397.443 548.781 393.399 538.071 386.459V461.313H505.936L506.221 328.079V322.875C508.826 287.036 538.648 259.006 575.415 259.006C612.183 259.006 644.609 289.932 644.609 328.079C644.609 366.226 613.634 397.443 575.415 397.443ZM612.76 328.079C612.76 307.56 595.967 290.795 575.415 290.795C554.864 290.795 538.071 307.56 538.071 328.079C538.071 348.598 554.572 365.363 575.415 365.363C596.258 365.363 612.76 348.889 612.76 328.079Z" fill="white"/>
<path d="M792.455 328.079V397.443H771.321C765.243 397.443 760.611 392.53 760.611 386.459C749.61 393.393 736.872 397.443 723.266 397.443C703.868 397.443 686.79 389.64 674.052 377.216C661.606 364.5 653.786 347.443 653.786 328.084C653.786 290.223 685.054 259.011 722.981 259.011C742.378 259.011 759.748 266.814 772.195 279.238C783.485 290.509 791.011 305.829 792.169 322.88C792.46 324.611 792.46 326.348 792.46 328.084L792.455 328.079ZM760.611 328.947C760.611 318.254 756.556 308.719 749.61 301.779C742.664 295.13 733.399 290.795 723.266 290.795C713.133 290.795 703.583 295.13 696.632 301.779C689.972 308.714 685.922 317.968 685.922 328.079C685.922 338.19 689.977 347.735 696.632 354.669C703.577 361.604 713.133 365.654 723.843 365.363C743.818 365.071 760.029 348.888 760.611 328.947Z" fill="white"/>
<path d="M823.239 377.21C826.712 380.678 830.765 383.854 835.105 386.459C845.819 393.393 858.562 397.443 872.453 397.443C886.345 397.443 898.797 393.399 909.797 386.459C911.31 405.812 901.407 424.792 880.015 429.024C858.622 433.255 846.11 418.83 846.11 418.83L820.633 438.195C820.633 438.195 852.015 476.094 902.565 454.378C902.773 454.274 902.998 454.169 903.22 454.065C908.323 451.548 942.562 433.013 941.647 388.822V259.006H909.845L910.087 328.271C910.087 338.239 906.181 347.724 899.088 354.983C897.275 356.796 895.103 358.532 892.801 360.011C886.618 363.912 879.607 365.979 872.527 365.979C865.451 365.979 858.284 363.912 852.258 360.011C841.34 353.164 834.815 341.3 834.815 328.271V259.006H802.965V328.079C802.965 339.64 805.861 350.62 810.782 360.159C813.969 366.517 818.309 372.298 823.226 377.21H823.239Z" fill="white"/>
</svg>
